<svg width="51" height="22" viewBox="0 0 51 22" fill="none" xmlns="http://www.w3.org/2000/svg">
<path d="M43.4749 2.2C44.9629 2.2 46.2509 2.448 47.3389 2.944C48.4429 3.44 49.2909 4.144 49.8829 5.056C50.4749 5.968 50.7709 7.048 50.7709 8.296C50.7709 9.528 50.4749 10.608 49.8829 11.536C49.2909 12.448 48.4429 13.152 47.3389 13.648C46.2509 14.128 44.9629 14.368 43.4749 14.368H40.0909V19H36.2029V2.2H43.4749ZM43.2589 11.2C44.4269 11.2 45.3149 10.952 45.9229 10.456C46.5309 9.944 46.8349 9.224 46.8349 8.296C46.8349 7.352 46.5309 6.632 45.9229 6.136C45.3149 5.624 44.4269 5.368 43.2589 5.368H40.0909V11.2H43.2589Z" fill="#878887"/>
<path d="M26.2312 19.288C24.5192 19.288 22.9672 18.92 21.5752 18.184C20.1992 17.432 19.1112 16.4 18.3112 15.088C17.5272 13.76 17.1352 12.264 17.1352 10.6C17.1352 8.936 17.5272 7.448 18.3112 6.136C19.1112 4.808 20.1992 3.776 21.5752 3.04C22.9672 2.288 24.5272 1.912 26.2552 1.912C27.7112 1.912 29.0232 2.168 30.1912 2.68C31.3752 3.192 32.3672 3.928 33.1672 4.888L30.6712 7.192C29.5352 5.88 28.1272 5.224 26.4472 5.224C25.4072 5.224 24.4792 5.456 23.6632 5.92C22.8472 6.368 22.2072 7 21.7432 7.816C21.2952 8.632 21.0712 9.56 21.0712 10.6C21.0712 11.64 21.2952 12.568 21.7432 13.384C22.2072 14.2 22.8472 14.84 23.6632 15.304C24.4792 15.752 25.4072 15.976 26.4472 15.976C28.1272 15.976 29.5352 15.312 30.6712 13.984L33.1672 16.288C32.3672 17.264 31.3752 18.008 30.1912 18.52C29.0072 19.032 27.6872 19.288 26.2312 19.288Z" fill="#43A1F7"/>
<path d="M10.8718 19L7.63178 14.32H7.43978H4.05578V19H0.167781V2.2H7.43978C8.92778 2.2 10.2158 2.448 11.3038 2.944C12.4078 3.44 13.2558 4.144 13.8478 5.056C14.4398 5.968 14.7358 7.048 14.7358 8.296C14.7358 9.544 14.4318 10.624 13.8238 11.536C13.2318 12.432 12.3838 13.12 11.2798 13.6L15.0478 19H10.8718ZM10.7998 8.296C10.7998 7.352 10.4958 6.632 9.88778 6.136C9.27978 5.624 8.39178 5.368 7.22378 5.368H4.05578V11.224H7.22378C8.39178 11.224 9.27978 10.968 9.88778 10.456C10.4958 9.944 10.7998 9.224 10.7998 8.296Z" fill="#F4622F"/>
</svg>
